<svg width="520" height="520" xmlns="http://www.w3.org/2000/svg">
 <style type="text/css">.st0{fill:#9A4993;}
	.st1{fill:#6A1577;}
	.st2{fill:#813084;}
	.st3{fill:#FFFFFF;}</style>

 <g>
  <title>background</title>
  <rect fill="none" id="canvas_background" height="522" width="522" y="-1" x="-1"/>
 </g>
 <g>
  <title>Layer 1</title>
  <path d="m509.4,151.8c0,-6.1 -1.3,-11.6 -4,-16.2c-2.6,-4.6 -6.5,-8.4 -11.7,-11.4c-43.2,-24.9 -86.5,-49.8 -129.7,-74.7c-11.7,-6.7 -22.9,-6.5 -34.5,0.3c-17.2,10.1 -103.4,59.5 -129,74.4c-10.6,6.1 -15.7,15.5 -15.7,27.7c0,50.1 0,100.3 0,150.4c0,6 1.3,11.3 3.8,15.9c2.6,4.7 6.6,8.7 11.9,11.8c25.7,14.9 111.8,64.2 129,74.4c11.6,6.8 22.9,7.1 34.5,0.3c43.2,-25 86.5,-49.8 129.7,-74.7c5.4,-3.1 9.3,-7 11.9,-11.8c2.5,-4.6 3.8,-9.9 3.8,-15.9c0,-0.1 0,-100.4 0,-150.5" class="st0" id="XMLID_3_"/>
  <path d="m347.5,226.5l-159.1,91.6c2.6,4.7 6.6,8.7 11.9,11.8c25.7,14.9 111.8,64.2 129,74.4c11.6,6.8 22.9,7.1 34.5,0.3c43.2,-25 86.5,-49.8 129.7,-74.7c5.4,-3.1 9.3,-7 11.9,-11.8l-157.9,-91.6" class="st1" id="XMLID_4_"/>
  <path d="m300.4,253.6c9.3,16.2 26.7,27.1 46.6,27.1c20.1,0 37.6,-11 46.8,-27.4l-46.3,-26.8l-47.1,27.1" class="st1" id="XMLID_5_"/>
  <path d="m509.4,151.8c0,-6.1 -1.3,-11.6 -4,-16.2l-157.9,90.9l158.1,91.6c2.5,-4.6 3.8,-9.9 3.8,-15.9c0,0 0,-100.3 0,-150.4" class="st2" id="XMLID_6_"/>
  <path d="m393.8,253.3c-9.2,16.3 -26.7,27.4 -46.8,27.4c-20,0 -37.4,-10.9 -46.6,-27.1c-4.5,-7.9 -7.1,-16.9 -7.1,-26.6c0,-29.7 24,-53.7 53.7,-53.7c19.8,0 37.1,10.8 46.4,26.8l46.9,-27c-18.7,-32.2 -53.5,-53.9 -93.4,-53.9c-59.6,0 -107.8,48.3 -107.8,107.8c0,19.5 5.2,37.9 14.3,53.7c18.6,32.3 53.6,54.1 93.6,54.1c40.1,0 75.1,-21.9 93.7,-54.4l-46.9,-27.1" class="st3" id="XMLID_9_"/>
  <g id="XMLID_32_">
   <rect height="51.7" width="10.7" class="st3" y="201.5" x="442.4" id="XMLID_2_"/>
   <rect height="51.7" width="10.7" class="st3" y="201.5" x="466.1" id="XMLID_30_"/>
   <rect height="10.7" width="51.7" class="st3" y="210.2" x="433.8" id="XMLID_31_"/>
   <rect height="10.7" width="51.7" class="st3" y="233.8" x="433.8" id="XMLID_23_"/>
  </g>
  <line stroke="#000" stroke-linecap="null" stroke-linejoin="null" id="svg_1" y2="479.453125" x2="512.379064" y1="479.453125" x1="182.000029" stroke-opacity="null" stroke-width="40.5" fill="none"/>
  <line stroke="#000" transform="rotate(45 88.51026153564449,161.73680114746094) " stroke-linecap="null" stroke-linejoin="null" id="svg_2" y2="161.7368" x2="179.625839" y1="161.7368" x1="-2.605326" stroke-opacity="null" stroke-width="36.5" fill="none"/>
  <line stroke="#000" transform="rotate(-45 88.51023101806628,265.73681640624994) " stroke-linecap="null" stroke-linejoin="null" id="svg_4" y2="265.736809" x2="179.625811" y1="265.736809" x1="-2.605354" stroke-opacity="null" stroke-width="36.5" fill="none"/>
 </g>
</svg>